<svg xmlns="http://www.w3.org/2000/svg" xmlns:xlink="http://www.w3.org/1999/xlink" width="64" zoomAndPan="magnify" viewBox="0 0 48 48" height="64" preserveAspectRatio="xMidYMid meet" version="1.0"><defs><clipPath id="1cf4d5f537"><path d="M 11 0 L 47.507812 0 L 47.507812 47.019531 L 11 47.019531 Z M 11 0 " clip-rule="nonzero"/></clipPath><clipPath id="e5c1cac530"><path d="M 0.488281 32 L 12 32 L 12 36 L 0.488281 36 Z M 0.488281 32 " clip-rule="nonzero"/></clipPath><clipPath id="6373e8106b"><path d="M 0.488281 11 L 12 11 L 12 15 L 0.488281 15 Z M 0.488281 11 " clip-rule="nonzero"/></clipPath><clipPath id="5fb434aaca"><path d="M 0.488281 22 L 12 22 L 12 25 L 0.488281 25 Z M 0.488281 22 " clip-rule="nonzero"/></clipPath></defs><g clip-path="url(#1cf4d5f537)"><path fill="#100f0d" d="M 36.359375 25.472656 C 36.4375 25.472656 36.503906 25.539062 36.503906 25.621094 L 36.503906 27.21875 C 36.503906 27.304688 36.4375 27.371094 36.359375 27.371094 L 34.675781 27.371094 L 34.675781 25.472656 Z M 36.359375 28.421875 C 36.4375 28.421875 36.503906 28.488281 36.503906 28.570312 L 36.503906 30.171875 C 36.503906 30.253906 36.4375 30.320312 36.359375 30.320312 L 34.675781 30.320312 L 34.675781 28.421875 Z M 36.359375 31.375 C 36.4375 31.375 36.503906 31.441406 36.503906 31.523438 L 36.503906 33.125 C 36.503906 33.207031 36.4375 33.273438 36.359375 33.273438 L 34.675781 33.273438 L 34.675781 31.375 Z M 34.15625 33.589844 C 34.15625 33.65625 34.105469 33.707031 34.039062 33.707031 L 14.882812 33.707031 L 13.765625 32.585938 L 13.765625 13.429688 C 13.765625 13.367188 13.816406 13.316406 13.878906 13.316406 L 34.039062 13.316406 C 34.105469 13.316406 34.15625 13.367188 34.15625 13.429688 Z M 33.761719 35.867188 C 33.761719 35.949219 33.695312 36.015625 33.613281 36.015625 L 32.015625 36.015625 C 31.929688 36.015625 31.863281 35.949219 31.863281 35.867188 L 31.863281 34.230469 L 33.761719 34.230469 Z M 30.8125 35.867188 C 30.8125 35.949219 30.746094 36.015625 30.660156 36.015625 L 29.0625 36.015625 C 28.980469 36.015625 28.914062 35.949219 28.914062 35.867188 L 28.914062 34.230469 L 30.8125 34.230469 Z M 27.859375 35.867188 C 27.859375 35.949219 27.792969 36.015625 27.710938 36.015625 L 26.109375 36.015625 C 26.03125 36.015625 25.960938 35.949219 25.960938 35.867188 L 25.960938 34.230469 L 27.859375 34.230469 Z M 24.90625 35.867188 C 24.90625 35.949219 24.839844 36.015625 24.757812 36.015625 L 23.160156 36.015625 C 23.074219 36.015625 23.011719 35.949219 23.011719 35.867188 L 23.011719 34.230469 L 24.90625 34.230469 Z M 22.039062 35.867188 C 22.039062 35.949219 21.972656 36.015625 21.890625 36.015625 L 20.289062 36.015625 C 20.207031 36.015625 20.140625 35.949219 20.140625 35.867188 L 20.140625 34.230469 L 22.039062 34.230469 Z M 19.085938 35.867188 C 19.085938 35.949219 19.019531 36.015625 18.9375 36.015625 L 17.339844 36.015625 C 17.253906 36.015625 17.1875 35.949219 17.1875 35.867188 L 17.1875 34.230469 L 19.085938 34.230469 Z M 16.136719 35.867188 C 16.136719 35.949219 16.070312 36.015625 15.984375 36.015625 L 14.386719 36.015625 C 14.304688 36.015625 14.238281 35.949219 14.238281 35.867188 L 14.238281 34.230469 L 16.136719 34.230469 Z M 11.640625 33.273438 C 11.5625 33.273438 11.496094 33.207031 11.496094 33.125 L 11.496094 31.523438 C 11.496094 31.441406 11.5625 31.375 11.640625 31.375 L 13.242188 31.375 L 13.242188 33.273438 Z M 11.640625 30.320312 C 11.5625 30.320312 11.496094 30.253906 11.496094 30.171875 L 11.496094 28.570312 C 11.496094 28.488281 11.5625 28.421875 11.640625 28.421875 L 13.242188 28.421875 L 13.242188 30.320312 Z M 11.640625 27.371094 C 11.5625 27.371094 11.496094 27.304688 11.496094 27.21875 L 11.496094 25.621094 C 11.496094 25.539062 11.5625 25.472656 11.640625 25.472656 L 13.242188 25.472656 L 13.242188 27.371094 Z M 11.640625 24.5 C 11.5625 24.5 11.496094 24.433594 11.496094 24.351562 L 11.496094 22.75 C 11.496094 22.667969 11.5625 22.601562 11.640625 22.601562 L 13.242188 22.601562 L 13.242188 24.5 Z M 11.640625 21.546875 C 11.5625 21.546875 11.496094 21.484375 11.496094 21.398438 L 11.496094 19.800781 C 11.496094 19.71875 11.5625 19.652344 11.640625 19.652344 L 13.242188 19.652344 L 13.242188 21.546875 Z M 11.640625 18.597656 C 11.5625 18.597656 11.496094 18.53125 11.496094 18.449219 L 11.496094 16.847656 C 11.496094 16.765625 11.5625 16.699219 11.640625 16.699219 L 13.242188 16.699219 L 13.242188 18.597656 Z M 11.640625 15.644531 C 11.5625 15.644531 11.496094 15.578125 11.496094 15.496094 L 11.496094 13.898438 C 11.496094 13.8125 11.5625 13.746094 11.640625 13.746094 L 13.242188 13.746094 L 13.242188 15.644531 Z M 14.238281 11.152344 C 14.238281 11.070312 14.304688 11.003906 14.386719 11.003906 L 15.984375 11.003906 C 16.070312 11.003906 16.136719 11.070312 16.136719 11.152344 L 16.136719 12.792969 L 14.238281 12.792969 Z M 17.1875 11.152344 C 17.1875 11.070312 17.253906 11.003906 17.339844 11.003906 L 18.9375 11.003906 C 19.019531 11.003906 19.085938 11.070312 19.085938 11.152344 L 19.085938 12.792969 L 17.1875 12.792969 Z M 20.140625 11.152344 C 20.140625 11.070312 20.207031 11.003906 20.289062 11.003906 L 21.890625 11.003906 C 21.972656 11.003906 22.039062 11.070312 22.039062 11.152344 L 22.039062 12.792969 L 20.140625 12.792969 Z M 23.011719 11.152344 C 23.011719 11.070312 23.074219 11.003906 23.160156 11.003906 L 24.757812 11.003906 C 24.839844 11.003906 24.90625 11.070312 24.90625 11.152344 L 24.90625 12.792969 L 23.011719 12.792969 Z M 25.960938 11.152344 C 25.960938 11.070312 26.03125 11.003906 26.109375 11.003906 L 27.710938 11.003906 C 27.792969 11.003906 27.859375 11.070312 27.859375 11.152344 L 27.859375 12.792969 L 25.960938 12.792969 Z M 28.914062 11.152344 C 28.914062 11.070312 28.980469 11.003906 29.0625 11.003906 L 30.660156 11.003906 C 30.746094 11.003906 30.8125 11.070312 30.8125 11.152344 L 30.8125 12.792969 L 28.914062 12.792969 Z M 31.863281 11.152344 C 31.863281 11.070312 31.929688 11.003906 32.015625 11.003906 L 33.613281 11.003906 C 33.695312 11.003906 33.761719 11.070312 33.761719 11.152344 L 33.761719 12.792969 L 31.863281 12.792969 Z M 36.359375 13.746094 C 36.4375 13.746094 36.503906 13.8125 36.503906 13.898438 L 36.503906 15.496094 C 36.503906 15.578125 36.4375 15.644531 36.359375 15.644531 L 34.675781 15.644531 L 34.675781 13.746094 Z M 36.359375 16.699219 C 36.4375 16.699219 36.503906 16.765625 36.503906 16.847656 L 36.503906 18.449219 C 36.503906 18.53125 36.4375 18.597656 36.359375 18.597656 L 34.675781 18.597656 L 34.675781 16.699219 Z M 36.359375 19.652344 C 36.4375 19.652344 36.503906 19.71875 36.503906 19.800781 L 36.503906 21.398438 C 36.503906 21.484375 36.4375 21.546875 36.359375 21.546875 L 34.675781 21.546875 L 34.675781 19.652344 Z M 36.359375 22.601562 C 36.4375 22.601562 36.503906 22.667969 36.503906 22.75 L 36.503906 24.351562 C 36.503906 24.433594 36.4375 24.5 36.359375 24.5 L 34.675781 24.5 L 34.675781 22.601562 Z M 43.972656 31.203125 C 43.972656 31.371094 43.839844 31.503906 43.671875 31.503906 C 43.507812 31.503906 43.371094 31.371094 43.371094 31.203125 C 43.371094 31.039062 43.507812 30.902344 43.671875 30.902344 C 43.839844 30.902344 43.972656 31.039062 43.972656 31.203125 Z M 39.90625 29.070312 C 40.074219 29.070312 40.210938 29.207031 40.210938 29.375 C 40.210938 29.539062 40.074219 29.671875 39.90625 29.671875 C 39.742188 29.671875 39.605469 29.539062 39.605469 29.375 C 39.605469 29.207031 39.742188 29.070312 39.90625 29.070312 Z M 46.734375 34.765625 C 46.902344 34.765625 47.035156 34.902344 47.035156 35.066406 C 47.035156 35.230469 46.902344 35.367188 46.734375 35.367188 C 46.570312 35.367188 46.4375 35.230469 46.4375 35.066406 C 46.4375 34.902344 46.570312 34.765625 46.734375 34.765625 Z M 35.859375 46.246094 C 35.859375 46.414062 35.722656 46.546875 35.558594 46.546875 C 35.390625 46.546875 35.253906 46.414062 35.253906 46.246094 C 35.253906 46.078125 35.390625 45.945312 35.558594 45.945312 C 35.722656 45.945312 35.859375 46.078125 35.859375 46.246094 Z M 30.164062 39.417969 C 30.164062 39.585938 30.027344 39.71875 29.863281 39.71875 C 29.695312 39.71875 29.5625 39.585938 29.5625 39.417969 C 29.5625 39.253906 29.695312 39.117188 29.863281 39.117188 C 30.027344 39.117188 30.164062 39.253906 30.164062 39.417969 Z M 31.691406 42.882812 C 31.859375 42.882812 31.992188 43.019531 31.992188 43.183594 C 31.992188 43.347656 31.859375 43.484375 31.691406 43.484375 C 31.527344 43.484375 31.390625 43.347656 31.390625 43.183594 C 31.390625 43.019531 31.527344 42.882812 31.691406 42.882812 Z M 24.261719 46.320312 C 24.261719 46.488281 24.125 46.625 23.960938 46.625 C 23.792969 46.625 23.660156 46.488281 23.660156 46.320312 C 23.660156 46.15625 23.792969 46.019531 23.960938 46.019531 C 24.125 46.019531 24.261719 46.15625 24.261719 46.320312 Z M 16.308594 43.484375 C 16.140625 43.484375 16.007812 43.347656 16.007812 43.183594 C 16.007812 43.019531 16.140625 42.882812 16.308594 42.882812 C 16.472656 42.882812 16.609375 43.019531 16.609375 43.183594 C 16.609375 43.347656 16.472656 43.484375 16.308594 43.484375 Z M 18.4375 39.417969 C 18.4375 39.585938 18.304688 39.71875 18.136719 39.71875 C 17.972656 39.71875 17.835938 39.585938 17.835938 39.417969 C 17.835938 39.253906 17.972656 39.117188 18.136719 39.117188 C 18.304688 39.117188 18.4375 39.253906 18.4375 39.417969 Z M 12.746094 46.246094 C 12.746094 46.414062 12.609375 46.546875 12.441406 46.546875 C 12.277344 46.546875 12.140625 46.414062 12.140625 46.246094 C 12.140625 46.078125 12.277344 45.945312 12.441406 45.945312 C 12.609375 45.945312 12.746094 46.078125 12.746094 46.246094 Z M 12.140625 0.773438 C 12.140625 0.609375 12.277344 0.472656 12.441406 0.472656 C 12.609375 0.472656 12.746094 0.609375 12.746094 0.773438 C 12.746094 0.941406 12.609375 1.074219 12.441406 1.074219 C 12.277344 1.074219 12.140625 0.941406 12.140625 0.773438 Z M 17.835938 7.601562 C 17.835938 7.433594 17.972656 7.300781 18.136719 7.300781 C 18.304688 7.300781 18.4375 7.433594 18.4375 7.601562 C 18.4375 7.765625 18.304688 7.902344 18.136719 7.902344 C 17.972656 7.902344 17.835938 7.765625 17.835938 7.601562 Z M 16.308594 4.136719 C 16.140625 4.136719 16.007812 4.003906 16.007812 3.835938 C 16.007812 3.671875 16.140625 3.535156 16.308594 3.535156 C 16.472656 3.535156 16.609375 3.671875 16.609375 3.835938 C 16.609375 4.003906 16.472656 4.136719 16.308594 4.136719 Z M 23.660156 0.699219 C 23.660156 0.53125 23.792969 0.398438 23.960938 0.398438 C 24.125 0.398438 24.261719 0.53125 24.261719 0.699219 C 24.261719 0.863281 24.125 1 23.960938 1 C 23.792969 1 23.660156 0.863281 23.660156 0.699219 Z M 31.691406 3.535156 C 31.859375 3.535156 31.992188 3.671875 31.992188 3.835938 C 31.992188 4.003906 31.859375 4.136719 31.691406 4.136719 C 31.527344 4.136719 31.390625 4.003906 31.390625 3.835938 C 31.390625 3.671875 31.527344 3.535156 31.691406 3.535156 Z M 29.5625 7.601562 C 29.5625 7.433594 29.695312 7.300781 29.863281 7.300781 C 30.027344 7.300781 30.164062 7.433594 30.164062 7.601562 C 30.164062 7.765625 30.027344 7.902344 29.863281 7.902344 C 29.695312 7.902344 29.5625 7.765625 29.5625 7.601562 Z M 35.253906 0.773438 C 35.253906 0.609375 35.390625 0.472656 35.558594 0.472656 C 35.722656 0.472656 35.859375 0.609375 35.859375 0.773438 C 35.859375 0.941406 35.722656 1.074219 35.558594 1.074219 C 35.390625 1.074219 35.253906 0.941406 35.253906 0.773438 Z M 46.734375 11.652344 C 46.902344 11.652344 47.035156 11.789062 47.035156 11.953125 C 47.035156 12.121094 46.902344 12.253906 46.734375 12.253906 C 46.570312 12.253906 46.4375 12.121094 46.4375 11.953125 C 46.4375 11.789062 46.570312 11.652344 46.734375 11.652344 Z M 39.90625 17.347656 C 40.074219 17.347656 40.210938 17.480469 40.210938 17.648438 C 40.210938 17.816406 40.074219 17.949219 39.90625 17.949219 C 39.742188 17.949219 39.605469 17.816406 39.605469 17.648438 C 39.605469 17.480469 39.742188 17.347656 39.90625 17.347656 Z M 43.371094 15.816406 C 43.371094 15.652344 43.507812 15.515625 43.671875 15.515625 C 43.839844 15.515625 43.972656 15.652344 43.972656 15.816406 C 43.972656 15.984375 43.839844 16.121094 43.671875 16.121094 C 43.507812 16.121094 43.371094 15.984375 43.371094 15.816406 Z M 46.8125 23.25 C 46.976562 23.25 47.113281 23.386719 47.113281 23.550781 C 47.113281 23.71875 46.976562 23.851562 46.8125 23.851562 C 46.644531 23.851562 46.511719 23.71875 46.511719 23.550781 C 46.511719 23.386719 46.644531 23.25 46.8125 23.25 Z M 36.359375 24.628906 C 36.511719 24.628906 36.636719 24.503906 36.636719 24.351562 L 36.636719 23.648438 L 46.121094 23.648438 C 46.171875 23.988281 46.460938 24.25 46.8125 24.25 C 47.195312 24.25 47.511719 23.9375 47.511719 23.550781 C 47.511719 23.167969 47.195312 22.851562 46.8125 22.851562 C 46.460938 22.851562 46.171875 23.113281 46.121094 23.453125 L 36.636719 23.453125 L 36.636719 22.75 C 36.636719 22.597656 36.511719 22.472656 36.359375 22.472656 L 34.675781 22.472656 L 34.675781 21.679688 L 36.359375 21.679688 C 36.511719 21.679688 36.636719 21.554688 36.636719 21.398438 L 36.636719 20.699219 L 43.773438 20.699219 L 43.773438 16.507812 C 44.109375 16.457031 44.375 16.167969 44.375 15.816406 C 44.375 15.433594 44.058594 15.121094 43.671875 15.121094 C 43.289062 15.121094 42.972656 15.433594 42.972656 15.816406 C 42.972656 16.167969 43.234375 16.457031 43.574219 16.507812 L 43.574219 20.5 L 36.636719 20.5 L 36.636719 19.800781 C 36.636719 19.644531 36.511719 19.519531 36.359375 19.519531 L 34.675781 19.519531 L 34.675781 18.726562 L 36.359375 18.726562 C 36.511719 18.726562 36.636719 18.601562 36.636719 18.449219 L 36.636719 17.75 L 39.21875 17.75 C 39.269531 18.085938 39.558594 18.347656 39.90625 18.347656 C 40.292969 18.347656 40.609375 18.03125 40.609375 17.648438 C 40.609375 17.261719 40.292969 16.949219 39.90625 16.949219 C 39.558594 16.949219 39.269531 17.210938 39.21875 17.546875 L 36.636719 17.546875 L 36.636719 16.847656 C 36.636719 16.695312 36.511719 16.570312 36.359375 16.570312 L 34.675781 16.570312 L 34.675781 15.777344 L 36.359375 15.777344 C 36.511719 15.777344 36.636719 15.652344 36.636719 15.496094 L 36.636719 14.773438 L 41.382812 14.773438 L 41.382812 12.050781 L 46.046875 12.050781 C 46.097656 12.390625 46.382812 12.652344 46.734375 12.652344 C 47.121094 12.652344 47.433594 12.339844 47.433594 11.953125 C 47.433594 11.566406 47.121094 11.253906 46.734375 11.253906 C 46.382812 11.253906 46.097656 11.515625 46.046875 11.855469 L 41.183594 11.855469 L 41.183594 14.578125 L 36.636719 14.578125 L 36.636719 13.898438 C 36.636719 13.742188 36.511719 13.617188 36.359375 13.617188 L 34.675781 13.617188 L 34.675781 13.429688 C 34.675781 13.078125 34.390625 12.792969 34.039062 12.792969 L 33.894531 12.792969 L 33.894531 11.152344 C 33.894531 11 33.769531 10.875 33.613281 10.875 L 32.933594 10.875 L 32.933594 6.328125 L 35.65625 6.328125 L 35.65625 1.460938 C 35.992188 1.414062 36.253906 1.125 36.253906 0.773438 C 36.253906 0.390625 35.941406 0.0742188 35.558594 0.0742188 C 35.171875 0.0742188 34.855469 0.390625 34.855469 0.773438 C 34.855469 1.125 35.121094 1.414062 35.457031 1.460938 L 35.457031 6.128906 L 32.734375 6.128906 L 32.734375 10.875 L 32.015625 10.875 C 31.859375 10.875 31.734375 11 31.734375 11.152344 L 31.734375 12.792969 L 30.941406 12.792969 L 30.941406 11.152344 C 30.941406 11 30.816406 10.875 30.660156 10.875 L 29.960938 10.875 L 29.960938 8.292969 C 30.300781 8.242188 30.5625 7.953125 30.5625 7.601562 C 30.5625 7.214844 30.246094 6.902344 29.863281 6.902344 C 29.476562 6.902344 29.164062 7.214844 29.164062 7.601562 C 29.164062 7.953125 29.425781 8.242188 29.761719 8.292969 L 29.761719 10.875 L 29.0625 10.875 C 28.90625 10.875 28.78125 11 28.78125 11.152344 L 28.78125 12.792969 L 27.988281 12.792969 L 27.988281 11.152344 C 27.988281 11 27.863281 10.875 27.710938 10.875 L 27.011719 10.875 L 27.011719 3.9375 L 31.003906 3.9375 C 31.050781 4.273438 31.339844 4.535156 31.691406 4.535156 C 32.078125 4.535156 32.390625 4.222656 32.390625 3.835938 C 32.390625 3.453125 32.078125 3.136719 31.691406 3.136719 C 31.339844 3.136719 31.050781 3.398438 31.003906 3.738281 L 26.808594 3.738281 L 26.808594 10.875 L 26.109375 10.875 C 25.957031 10.875 25.832031 11 25.832031 11.152344 L 25.832031 12.792969 L 25.039062 12.792969 L 25.039062 11.152344 C 25.039062 11 24.914062 10.875 24.757812 10.875 L 24.058594 10.875 L 24.058594 1.386719 C 24.398438 1.339844 24.65625 1.050781 24.65625 0.699219 C 24.65625 0.3125 24.34375 0 23.960938 0 C 23.574219 0 23.261719 0.3125 23.261719 0.699219 C 23.261719 1.050781 23.519531 1.339844 23.859375 1.386719 L 23.859375 10.875 L 23.160156 10.875 C 23.003906 10.875 22.878906 11 22.878906 11.152344 L 22.878906 12.792969 L 22.167969 12.792969 L 22.167969 11.152344 C 22.167969 11 22.042969 10.875 21.890625 10.875 L 21.191406 10.875 L 21.191406 3.738281 L 16.996094 3.738281 C 16.945312 3.398438 16.660156 3.136719 16.308594 3.136719 C 15.921875 3.136719 15.609375 3.453125 15.609375 3.835938 C 15.609375 4.222656 15.921875 4.535156 16.308594 4.535156 C 16.660156 4.535156 16.945312 4.273438 16.996094 3.9375 L 20.988281 3.9375 L 20.988281 10.875 L 20.289062 10.875 C 20.136719 10.875 20.011719 11 20.011719 11.152344 L 20.011719 12.792969 L 19.21875 12.792969 L 19.21875 11.152344 C 19.21875 11 19.09375 10.875 18.9375 10.875 L 18.238281 10.875 L 18.238281 8.292969 C 18.574219 8.242188 18.835938 7.953125 18.835938 7.601562 C 18.835938 7.214844 18.523438 6.902344 18.136719 6.902344 C 17.753906 6.902344 17.4375 7.214844 17.4375 7.601562 C 17.4375 7.953125 17.699219 8.242188 18.039062 8.292969 L 18.039062 10.875 L 17.339844 10.875 C 17.183594 10.875 17.058594 11 17.058594 11.152344 L 17.058594 12.792969 L 16.265625 12.792969 L 16.265625 11.152344 C 16.265625 11 16.140625 10.875 15.984375 10.875 L 15.265625 10.875 L 15.265625 6.128906 L 12.542969 6.128906 L 12.542969 1.460938 C 12.878906 1.414062 13.140625 1.125 13.140625 0.773438 C 13.140625 0.390625 12.828125 0.0742188 12.441406 0.0742188 C 12.058594 0.0742188 11.746094 0.390625 11.746094 0.773438 C 11.746094 1.125 12.007812 1.414062 12.34375 1.460938 L 12.34375 6.328125 L 15.066406 6.328125 L 15.066406 10.875 L 14.386719 10.875 C 14.230469 10.875 14.105469 11 14.105469 11.152344 L 14.105469 12.792969 L 13.878906 12.792969 C 13.527344 12.792969 13.242188 13.078125 13.242188 13.429688 L 13.242188 13.617188 L 11.640625 13.617188 C 11.488281 13.617188 11.363281 13.742188 11.363281 13.898438 L 11.363281 15.496094 C 11.363281 15.652344 11.488281 15.777344 11.640625 15.777344 L 13.242188 15.777344 L 13.242188 16.570312 L 11.640625 16.570312 C 11.488281 16.570312 11.363281 16.695312 11.363281 16.847656 L 11.363281 18.449219 C 11.363281 18.601562 11.488281 18.726562 11.640625 18.726562 L 13.242188 18.726562 L 13.242188 19.519531 L 11.640625 19.519531 C 11.488281 19.519531 11.363281 19.644531 11.363281 19.800781 L 11.363281 21.398438 C 11.363281 21.554688 11.488281 21.679688 11.640625 21.679688 L 13.242188 21.679688 L 13.242188 22.472656 L 11.640625 22.472656 C 11.488281 22.472656 11.363281 22.597656 11.363281 22.75 L 11.363281 24.351562 C 11.363281 24.503906 11.488281 24.628906 11.640625 24.628906 L 13.242188 24.628906 L 13.242188 25.339844 L 11.640625 25.339844 C 11.488281 25.339844 11.363281 25.464844 11.363281 25.621094 L 11.363281 27.21875 C 11.363281 27.375 11.488281 27.5 11.640625 27.5 L 13.242188 27.5 L 13.242188 28.292969 L 11.640625 28.292969 C 11.488281 28.292969 11.363281 28.417969 11.363281 28.570312 L 11.363281 30.171875 C 11.363281 30.328125 11.488281 30.453125 11.640625 30.453125 L 13.242188 30.453125 L 13.242188 31.246094 L 11.640625 31.246094 C 11.488281 31.246094 11.363281 31.371094 11.363281 31.523438 L 11.363281 33.125 C 11.363281 33.277344 11.488281 33.402344 11.640625 33.402344 L 13.242188 33.402344 L 13.242188 33.589844 C 13.242188 33.941406 13.527344 34.230469 13.878906 34.230469 L 14.105469 34.230469 L 14.105469 35.867188 C 14.105469 36.019531 14.230469 36.144531 14.386719 36.144531 L 15.066406 36.144531 L 15.066406 40.691406 L 12.34375 40.691406 L 12.34375 45.554688 C 12.007812 45.605469 11.746094 45.894531 11.746094 46.246094 C 11.746094 46.632812 12.058594 46.945312 12.441406 46.945312 C 12.828125 46.945312 13.140625 46.632812 13.140625 46.246094 C 13.140625 45.894531 12.878906 45.605469 12.542969 45.554688 L 12.542969 40.890625 L 15.265625 40.890625 L 15.265625 36.144531 L 15.984375 36.144531 C 16.140625 36.144531 16.265625 36.019531 16.265625 35.867188 L 16.265625 34.230469 L 17.058594 34.230469 L 17.058594 35.867188 C 17.058594 36.019531 17.183594 36.144531 17.339844 36.144531 L 18.039062 36.144531 L 18.039062 38.730469 C 17.699219 38.777344 17.4375 39.066406 17.4375 39.417969 C 17.4375 39.804688 17.753906 40.117188 18.136719 40.117188 C 18.523438 40.117188 18.835938 39.804688 18.835938 39.417969 C 18.835938 39.066406 18.574219 38.777344 18.238281 38.730469 L 18.238281 36.144531 L 18.9375 36.144531 C 19.09375 36.144531 19.21875 36.019531 19.21875 35.867188 L 19.21875 34.230469 L 20.011719 34.230469 L 20.011719 35.867188 C 20.011719 36.019531 20.136719 36.144531 20.289062 36.144531 L 20.988281 36.144531 L 20.988281 43.085938 L 16.996094 43.085938 C 16.945312 42.746094 16.660156 42.484375 16.308594 42.484375 C 15.921875 42.484375 15.609375 42.796875 15.609375 43.183594 C 15.609375 43.570312 15.921875 43.882812 16.308594 43.882812 C 16.660156 43.882812 16.945312 43.621094 16.996094 43.28125 L 21.191406 43.28125 L 21.191406 36.144531 L 21.890625 36.144531 C 22.042969 36.144531 22.167969 36.019531 22.167969 35.867188 L 22.167969 34.230469 L 22.878906 34.230469 L 22.878906 35.867188 C 22.878906 36.019531 23.003906 36.144531 23.160156 36.144531 L 23.859375 36.144531 L 23.859375 45.632812 C 23.519531 45.679688 23.261719 45.96875 23.261719 46.320312 C 23.261719 46.707031 23.574219 47.019531 23.960938 47.019531 C 24.34375 47.019531 24.65625 46.707031 24.65625 46.320312 C 24.65625 45.96875 24.398438 45.679688 24.058594 45.632812 L 24.058594 36.144531 L 24.757812 36.144531 C 24.914062 36.144531 25.039062 36.019531 25.039062 35.867188 L 25.039062 34.230469 L 25.832031 34.230469 L 25.832031 35.867188 C 25.832031 36.019531 25.957031 36.144531 26.109375 36.144531 L 26.808594 36.144531 L 26.808594 43.28125 L 31.003906 43.28125 C 31.050781 43.621094 31.339844 43.882812 31.691406 43.882812 C 32.078125 43.882812 32.390625 43.570312 32.390625 43.183594 C 32.390625 42.796875 32.078125 42.484375 31.691406 42.484375 C 31.339844 42.484375 31.050781 42.746094 31.003906 43.085938 L 27.011719 43.085938 L 27.011719 36.144531 L 27.710938 36.144531 C 27.863281 36.144531 27.988281 36.019531 27.988281 35.867188 L 27.988281 34.230469 L 28.78125 34.230469 L 28.78125 35.867188 C 28.78125 36.019531 28.90625 36.144531 29.0625 36.144531 L 29.761719 36.144531 L 29.761719 38.730469 C 29.425781 38.777344 29.164062 39.066406 29.164062 39.417969 C 29.164062 39.804688 29.476562 40.117188 29.863281 40.117188 C 30.246094 40.117188 30.5625 39.804688 30.5625 39.417969 C 30.5625 39.066406 30.300781 38.777344 29.960938 38.730469 L 29.960938 36.144531 L 30.660156 36.144531 C 30.816406 36.144531 30.941406 36.019531 30.941406 35.867188 L 30.941406 34.230469 L 31.734375 34.230469 L 31.734375 35.867188 C 31.734375 36.019531 31.859375 36.144531 32.015625 36.144531 L 32.734375 36.144531 L 32.734375 40.890625 L 35.457031 40.890625 L 35.457031 45.554688 C 35.121094 45.605469 34.855469 45.894531 34.855469 46.246094 C 34.855469 46.632812 35.171875 46.945312 35.558594 46.945312 C 35.941406 46.945312 36.253906 46.632812 36.253906 46.246094 C 36.253906 45.894531 35.992188 45.605469 35.65625 45.554688 L 35.65625 40.691406 L 32.933594 40.691406 L 32.933594 36.144531 L 33.613281 36.144531 C 33.769531 36.144531 33.894531 36.019531 33.894531 35.867188 L 33.894531 34.230469 L 34.039062 34.230469 C 34.390625 34.230469 34.675781 33.941406 34.675781 33.589844 L 34.675781 33.402344 L 36.359375 33.402344 C 36.511719 33.402344 36.636719 33.277344 36.636719 33.125 L 36.636719 32.445312 L 41.183594 32.445312 L 41.183594 35.167969 L 46.046875 35.167969 C 46.097656 35.503906 46.382812 35.765625 46.734375 35.765625 C 47.121094 35.765625 47.433594 35.453125 47.433594 35.066406 C 47.433594 34.679688 47.121094 34.367188 46.734375 34.367188 C 46.382812 34.367188 46.097656 34.628906 46.046875 34.96875 L 41.382812 34.96875 L 41.382812 32.246094 L 36.636719 32.246094 L 36.636719 31.523438 C 36.636719 31.371094 36.511719 31.246094 36.359375 31.246094 L 34.675781 31.246094 L 34.675781 30.453125 L 36.359375 30.453125 C 36.511719 30.453125 36.636719 30.328125 36.636719 30.171875 L 36.636719 29.472656 L 39.21875 29.472656 C 39.269531 29.808594 39.558594 30.070312 39.90625 30.070312 C 40.292969 30.070312 40.609375 29.757812 40.609375 29.375 C 40.609375 28.988281 40.292969 28.671875 39.90625 28.671875 C 39.558594 28.671875 39.269531 28.933594 39.21875 29.273438 L 36.636719 29.273438 L 36.636719 28.570312 C 36.636719 28.417969 36.511719 28.292969 36.359375 28.292969 L 34.675781 28.292969 L 34.675781 27.5 L 36.359375 27.5 C 36.511719 27.5 36.636719 27.375 36.636719 27.21875 L 36.636719 26.519531 L 43.574219 26.519531 L 43.574219 30.515625 C 43.234375 30.5625 42.972656 30.851562 42.972656 31.203125 C 42.972656 31.589844 43.289062 31.902344 43.671875 31.902344 C 44.058594 31.902344 44.375 31.589844 44.375 31.203125 C 44.375 30.851562 44.109375 30.5625 43.773438 30.515625 L 43.773438 26.320312 L 36.636719 26.320312 L 36.636719 25.621094 C 36.636719 25.464844 36.511719 25.339844 36.359375 25.339844 L 34.675781 25.339844 L 34.675781 24.628906 L 36.359375 24.628906 " fill-opacity="1" fill-rule="nonzero"/></g><path fill="#100f0d" d="M 19.019531 23.792969 C 19.019531 24.050781 18.8125 24.257812 18.554688 24.257812 L 15.824219 24.257812 C 15.566406 24.257812 15.359375 24.050781 15.359375 23.792969 L 15.359375 15.074219 C 15.359375 14.820312 15.566406 14.609375 15.824219 14.609375 L 18.554688 14.609375 C 18.8125 14.609375 19.019531 14.820312 19.019531 15.074219 Z M 18.554688 14.480469 L 15.824219 14.480469 C 15.492188 14.480469 15.226562 14.75 15.226562 15.074219 L 15.226562 23.792969 C 15.226562 24.125 15.492188 24.390625 15.824219 24.390625 L 18.554688 24.390625 C 18.882812 24.390625 19.152344 24.125 19.152344 23.792969 L 19.152344 15.074219 C 19.152344 14.75 18.882812 14.480469 18.554688 14.480469 " fill-opacity="1" fill-rule="nonzero"/><path fill="#100f0d" d="M 19.542969 14.746094 L 23.011719 14.746094 L 23.011719 14.699219 L 19.542969 14.699219 L 19.542969 14.746094 " fill-opacity="1" fill-rule="nonzero"/><path fill="#100f0d" d="M 19.542969 15.378906 L 23.011719 15.378906 L 23.011719 15.332031 L 19.542969 15.332031 L 19.542969 15.378906 " fill-opacity="1" fill-rule="nonzero"/><path fill="#100f0d" d="M 19.542969 16.015625 L 23.011719 16.015625 L 23.011719 15.96875 L 19.542969 15.96875 L 19.542969 16.015625 " fill-opacity="1" fill-rule="nonzero"/><path fill="#100f0d" d="M 19.542969 16.652344 L 23.011719 16.652344 L 23.011719 16.605469 L 19.542969 16.605469 L 19.542969 16.652344 " fill-opacity="1" fill-rule="nonzero"/><path fill="#100f0d" d="M 19.542969 17.289062 L 23.011719 17.289062 L 23.011719 17.238281 L 19.542969 17.238281 L 19.542969 17.289062 " fill-opacity="1" fill-rule="nonzero"/><g clip-path="url(#e5c1cac530)"><path fill="#100f0d" d="M 1.261719 35.367188 C 1.097656 35.367188 0.964844 35.230469 0.964844 35.066406 C 0.964844 34.902344 1.097656 34.765625 1.261719 34.765625 C 1.429688 34.765625 1.566406 34.902344 1.566406 35.066406 C 1.566406 35.230469 1.429688 35.367188 1.261719 35.367188 Z M 6.816406 32.445312 L 11.363281 32.445312 L 11.363281 32.246094 L 6.617188 32.246094 L 6.617188 34.96875 L 1.953125 34.96875 C 1.902344 34.628906 1.617188 34.367188 1.261719 34.367188 C 0.878906 34.367188 0.566406 34.679688 0.566406 35.066406 C 0.566406 35.453125 0.878906 35.765625 1.261719 35.765625 C 1.617188 35.765625 1.902344 35.503906 1.953125 35.167969 L 6.816406 35.167969 L 6.816406 32.445312 " fill-opacity="1" fill-rule="nonzero"/></g><path fill="#100f0d" d="M 4.628906 31.203125 C 4.628906 31.371094 4.492188 31.503906 4.328125 31.503906 C 4.160156 31.503906 4.027344 31.371094 4.027344 31.203125 C 4.027344 31.039062 4.160156 30.902344 4.328125 30.902344 C 4.492188 30.902344 4.628906 31.039062 4.628906 31.203125 Z M 11.363281 26.320312 L 4.226562 26.320312 L 4.226562 30.515625 C 3.890625 30.5625 3.628906 30.851562 3.628906 31.203125 C 3.628906 31.589844 3.941406 31.902344 4.328125 31.902344 C 4.710938 31.902344 5.023438 31.589844 5.023438 31.203125 C 5.023438 30.851562 4.765625 30.5625 4.425781 30.515625 L 4.425781 26.519531 L 11.363281 26.519531 L 11.363281 26.320312 " fill-opacity="1" fill-rule="nonzero"/><path fill="#100f0d" d="M 8.09375 29.671875 C 7.925781 29.671875 7.789062 29.539062 7.789062 29.375 C 7.789062 29.207031 7.925781 29.070312 8.09375 29.070312 C 8.257812 29.070312 8.394531 29.207031 8.394531 29.375 C 8.394531 29.539062 8.257812 29.671875 8.09375 29.671875 Z M 8.09375 28.671875 C 7.707031 28.671875 7.390625 28.988281 7.390625 29.375 C 7.390625 29.757812 7.707031 30.070312 8.09375 30.070312 C 8.441406 30.070312 8.730469 29.808594 8.78125 29.472656 L 11.363281 29.472656 L 11.363281 29.273438 L 8.78125 29.273438 C 8.730469 28.933594 8.441406 28.671875 8.09375 28.671875 " fill-opacity="1" fill-rule="nonzero"/><path fill="#100f0d" d="M 8.09375 17.949219 C 7.925781 17.949219 7.789062 17.816406 7.789062 17.648438 C 7.789062 17.480469 7.925781 17.347656 8.09375 17.347656 C 8.257812 17.347656 8.394531 17.480469 8.394531 17.648438 C 8.394531 17.816406 8.257812 17.949219 8.09375 17.949219 Z M 11.363281 17.546875 L 8.78125 17.546875 C 8.730469 17.210938 8.441406 16.949219 8.09375 16.949219 C 7.707031 16.949219 7.390625 17.261719 7.390625 17.648438 C 7.390625 18.03125 7.707031 18.347656 8.09375 18.347656 C 8.441406 18.347656 8.730469 18.085938 8.78125 17.75 L 11.363281 17.75 L 11.363281 17.546875 " fill-opacity="1" fill-rule="nonzero"/><path fill="#100f0d" d="M 4.027344 15.816406 C 4.027344 15.652344 4.160156 15.515625 4.328125 15.515625 C 4.492188 15.515625 4.628906 15.652344 4.628906 15.816406 C 4.628906 15.984375 4.492188 16.121094 4.328125 16.121094 C 4.160156 16.121094 4.027344 15.984375 4.027344 15.816406 Z M 11.363281 20.699219 L 11.363281 20.5 L 4.425781 20.5 L 4.425781 16.507812 C 4.765625 16.457031 5.023438 16.167969 5.023438 15.816406 C 5.023438 15.433594 4.710938 15.121094 4.328125 15.121094 C 3.941406 15.121094 3.628906 15.433594 3.628906 15.816406 C 3.628906 16.167969 3.890625 16.457031 4.226562 16.507812 L 4.226562 20.699219 L 11.363281 20.699219 " fill-opacity="1" fill-rule="nonzero"/><g clip-path="url(#6373e8106b)"><path fill="#100f0d" d="M 1.261719 11.652344 C 1.429688 11.652344 1.566406 11.789062 1.566406 11.953125 C 1.566406 12.121094 1.429688 12.253906 1.261719 12.253906 C 1.097656 12.253906 0.964844 12.121094 0.964844 11.953125 C 0.964844 11.789062 1.097656 11.652344 1.261719 11.652344 Z M 1.261719 12.652344 C 1.617188 12.652344 1.902344 12.390625 1.953125 12.050781 L 6.617188 12.050781 L 6.617188 14.773438 L 11.363281 14.773438 L 11.363281 14.578125 L 6.816406 14.578125 L 6.816406 11.855469 L 1.953125 11.855469 C 1.902344 11.515625 1.617188 11.253906 1.261719 11.253906 C 0.878906 11.253906 0.566406 11.566406 0.566406 11.953125 C 0.566406 12.339844 0.878906 12.652344 1.261719 12.652344 " fill-opacity="1" fill-rule="nonzero"/></g><g clip-path="url(#5fb434aaca)"><path fill="#100f0d" d="M 1.191406 23.25 C 1.355469 23.25 1.488281 23.386719 1.488281 23.550781 C 1.488281 23.71875 1.355469 23.851562 1.191406 23.851562 C 1.023438 23.851562 0.886719 23.71875 0.886719 23.550781 C 0.886719 23.386719 1.023438 23.25 1.191406 23.25 Z M 1.191406 24.25 C 1.539062 24.25 1.828125 23.988281 1.875 23.648438 L 11.363281 23.648438 L 11.363281 23.453125 L 1.875 23.453125 C 1.828125 23.113281 1.539062 22.851562 1.191406 22.851562 C 0.804688 22.851562 0.488281 23.167969 0.488281 23.550781 C 0.488281 23.9375 0.804688 24.25 1.191406 24.25 " fill-opacity="1" fill-rule="nonzero"/></g></svg>