<svg xmlns="http://www.w3.org/2000/svg" xmlns:xlink="http://www.w3.org/1999/xlink" width="64" zoomAndPan="magnify" viewBox="0 0 48 48" height="64" preserveAspectRatio="xMidYMid meet" version="1.0"><defs><clipPath id="75c7118e88"><path d="M 14 3.554688 L 34 3.554688 L 34 24 L 14 24 Z M 14 3.554688 " clip-rule="nonzero"/></clipPath><clipPath id="ae7c46cb08"><path d="M 9.199219 25 L 38.589844 25 L 38.589844 43.226562 L 9.199219 43.226562 Z M 9.199219 25 " clip-rule="nonzero"/></clipPath><clipPath id="3d2f192615"><path d="M 9.199219 25 L 31 25 L 31 43.226562 L 9.199219 43.226562 Z M 9.199219 25 " clip-rule="nonzero"/></clipPath><clipPath id="3a04cfa6a3"><path d="M 14 3.554688 L 27 3.554688 L 27 24 L 14 24 Z M 14 3.554688 " clip-rule="nonzero"/></clipPath></defs><g clip-path="url(#75c7118e88)"><path fill="#4cc9f0" d="M 34 13.582031 C 34 14.214844 33.9375 14.835938 33.816406 15.457031 C 33.691406 16.074219 33.511719 16.675781 33.269531 17.257812 C 33.027344 17.839844 32.730469 18.394531 32.382812 18.917969 C 32.03125 19.441406 31.632812 19.925781 31.1875 20.375 C 30.742188 20.820312 30.253906 21.21875 29.730469 21.566406 C 29.207031 21.917969 28.652344 22.214844 28.070312 22.457031 C 27.488281 22.695312 26.886719 22.878906 26.269531 23 C 25.652344 23.125 25.027344 23.1875 24.394531 23.1875 C 23.765625 23.1875 23.140625 23.125 22.523438 23 C 21.902344 22.878906 21.304688 22.695312 20.71875 22.457031 C 20.136719 22.214844 19.585938 21.917969 19.058594 21.566406 C 18.535156 21.21875 18.050781 20.820312 17.605469 20.375 C 17.160156 19.925781 16.761719 19.441406 16.410156 18.917969 C 16.058594 18.394531 15.765625 17.839844 15.523438 17.257812 C 15.28125 16.675781 15.097656 16.074219 14.976562 15.457031 C 14.851562 14.835938 14.792969 14.214844 14.792969 13.582031 C 14.792969 12.953125 14.851562 12.328125 14.976562 11.707031 C 15.097656 11.089844 15.28125 10.488281 15.523438 9.90625 C 15.765625 9.324219 16.058594 8.769531 16.410156 8.246094 C 16.761719 7.722656 17.160156 7.238281 17.605469 6.792969 C 18.050781 6.34375 18.535156 5.949219 19.058594 5.597656 C 19.585938 5.246094 20.136719 4.949219 20.71875 4.710938 C 21.304688 4.46875 21.902344 4.285156 22.523438 4.164062 C 23.140625 4.039062 23.765625 3.980469 24.394531 3.980469 C 25.027344 3.980469 25.652344 4.039062 26.269531 4.164062 C 26.886719 4.285156 27.488281 4.46875 28.070312 4.710938 C 28.652344 4.949219 29.207031 5.246094 29.730469 5.597656 C 30.253906 5.949219 30.742188 6.34375 31.1875 6.792969 C 31.632812 7.238281 32.03125 7.722656 32.382812 8.246094 C 32.730469 8.769531 33.027344 9.324219 33.269531 9.90625 C 33.511719 10.488281 33.691406 11.089844 33.816406 11.707031 C 33.9375 12.328125 34 12.953125 34 13.582031 Z M 34 13.582031 " fill-opacity="1" fill-rule="nonzero"/></g><g clip-path="url(#ae7c46cb08)"><path fill="#4cc9f0" d="M 35.136719 43.4375 C 37.191406 43.449219 38.792969 41.601562 38.429688 39.578125 C 37 31.644531 31.132812 25.683594 24.085938 25.648438 C 17.035156 25.609375 11.105469 31.503906 9.589844 39.421875 C 9.203125 41.441406 10.785156 43.304688 12.839844 43.316406 Z M 35.136719 43.4375 " fill-opacity="1" fill-rule="nonzero"/></g><g clip-path="url(#3d2f192615)"><path fill="#46bfe5" d="M 17.960938 39.023438 C 16.160156 35.417969 23.59375 35.867188 28.09375 32.714844 C 32.519531 29.617188 28.175781 26.421875 28.023438 26.308594 C 26.746094 25.875 25.429688 25.65625 24.082031 25.648438 C 17.035156 25.609375 11.105469 31.503906 9.589844 39.421875 C 9.203125 41.441406 10.785156 43.304688 12.839844 43.316406 L 22.503906 43.367188 C 21.472656 42.132812 19.003906 41.101562 17.960938 39.023438 Z M 17.960938 39.023438 " fill-opacity="1" fill-rule="nonzero"/></g><g clip-path="url(#3a04cfa6a3)"><path fill="#46bfe5" d="M 25.644531 4.0625 C 25.296875 4.015625 24.945312 3.992188 24.59375 3.984375 C 24.242188 3.976562 23.890625 3.988281 23.539062 4.019531 C 23.1875 4.050781 22.839844 4.101562 22.496094 4.171875 C 22.152344 4.242188 21.8125 4.332031 21.476562 4.4375 C 21.140625 4.542969 20.8125 4.671875 20.488281 4.8125 C 20.167969 4.957031 19.855469 5.117188 19.550781 5.296875 C 19.246094 5.472656 18.953125 5.667969 18.671875 5.875 C 18.390625 6.085938 18.121094 6.3125 17.863281 6.550781 C 17.605469 6.789062 17.359375 7.042969 17.128906 7.308594 C 16.898438 7.578125 16.683594 7.855469 16.484375 8.144531 C 16.285156 8.4375 16.101562 8.734375 15.9375 9.046875 C 15.769531 9.355469 15.621094 9.675781 15.492188 10 C 15.359375 10.328125 15.246094 10.660156 15.152344 11 C 15.054688 11.339844 14.980469 11.683594 14.921875 12.03125 C 14.867188 12.378906 14.828125 12.726562 14.808594 13.078125 C 14.792969 13.429688 14.792969 13.78125 14.8125 14.132812 C 14.832031 14.484375 14.871094 14.832031 14.929688 15.179688 C 14.988281 15.527344 15.066406 15.871094 15.164062 16.210938 C 15.257812 16.546875 15.375 16.878906 15.507812 17.207031 C 15.640625 17.53125 15.789062 17.851562 15.957031 18.160156 C 16.125 18.46875 16.308594 18.769531 16.511719 19.058594 C 16.710938 19.347656 16.925781 19.625 17.15625 19.890625 C 17.390625 20.15625 17.632812 20.40625 17.894531 20.644531 C 18.152344 20.886719 18.421875 21.109375 18.707031 21.316406 C 18.988281 21.527344 19.285156 21.71875 19.589844 21.894531 C 19.894531 22.070312 20.207031 22.230469 20.527344 22.371094 C 20.851562 22.515625 21.179688 22.636719 21.515625 22.742188 C 21.851562 22.847656 22.191406 22.9375 22.539062 23.003906 C 22.882812 23.074219 23.230469 23.121094 23.582031 23.152344 C 23.933594 23.183594 24.285156 23.191406 24.636719 23.183594 C 24.988281 23.175781 25.339844 23.148438 25.6875 23.101562 C 26.035156 23.054688 26.382812 22.988281 26.722656 22.902344 C 25.167969 17.402344 17.960938 18.300781 17.285156 13.121094 C 16.347656 5.941406 22.53125 4.539062 25.644531 4.0625 Z M 25.644531 4.0625 " fill-opacity="1" fill-rule="nonzero"/></g></svg>